<?xml version="1.0" encoding="utf-8"?>
<svg viewBox="35.599 54.757 233.362 87.953" xmlns="http://www.w3.org/2000/svg" xmlns:xlink="http://www.w3.org/1999/xlink">
  <defs>
    <radialGradient id="radial-gradient" cx="179.75" cy="111.98" r="226.25" gradientUnits="userSpaceOnUse">
      <stop offset="0" stop-color="#e0ffe8"/>
      <stop offset="0.28" stop-color="#4ade80"/>
      <stop offset="0.8" stop-color="#052e16"/>
    </radialGradient>
    <radialGradient id="radial-gradient-2" cx="13.63" cy="35.5" r="120.12" xlink:href="#radial-gradient"/>
    <radialGradient id="radial-gradient-3" cx="178.18" cy="121.1" r="129.77" xlink:href="#radial-gradient"/>
    <radialGradient id="radial-gradient-4" cx="178.38" cy="121.1" r="127.03" xlink:href="#radial-gradient"/>
    <radialGradient id="radial-gradient-5" cx="60.4" cy="-4.24" r="159.27" gradientUnits="userSpaceOnUse">
      <stop offset="0" stop-color="#e0ffe8"/>
      <stop offset="0.5" stop-color="#22c55e"/>
      <stop offset="1" stop-color="#14532d"/>
    </radialGradient>
    <radialGradient id="radial-gradient-6" cx="57.8" cy="30.68" r="101.37" xlink:href="#radial-gradient-5"/>
    <radialGradient id="radial-gradient-7" cx="161.57" cy="133.6" r="141.5" xlink:href="#radial-gradient-5"/>
    <radialGradient id="radial-gradient-8" cx="181.11" cy="129.11" r="132.9" xlink:href="#radial-gradient-5"/>
    <linearGradient id="linear-gradient-2" x1="8.06" y1="130.48" x2="8.06" y2="153.17" gradientUnits="userSpaceOnUse">
      <stop offset="0" stop-color="#86efac"/>
      <stop offset="0.48" stop-color="#16a34a"/>
      <stop offset="1" stop-color="#052e16"/>
    </linearGradient>
    <linearGradient id="linear-gradient-3" x1="25.61" y1="130.48" x2="25.61" y2="153.17" xlink:href="#linear-gradient-2"/>
    <linearGradient id="linear-gradient-4" x1="44.17" y1="130.48" x2="44.17" y2="153.17" xlink:href="#linear-gradient-2"/>
    <linearGradient id="linear-gradient-5" x1="63.86" y1="130.48" x2="63.86" y2="153.17" xlink:href="#linear-gradient-2"/>
    <linearGradient id="linear-gradient-6" x1="85.05" y1="130.48" x2="85.05" y2="153.17" xlink:href="#linear-gradient-2"/>
    <linearGradient id="linear-gradient-7" x1="105.87" y1="130.48" x2="105.87" y2="153.17" xlink:href="#linear-gradient-2"/>
    <linearGradient id="Gradient_28" data-name="Gradient 28" x1="27.53" y1="153.49" x2="27.53" y2="169.69" gradientUnits="userSpaceOnUse">
      <stop offset="0" stop-color="#86efac"/>
      <stop offset="0.5" stop-color="#4ade80"/>
      <stop offset="1" stop-color="#16a34a"/>
    </linearGradient>
    <linearGradient id="Gradient_28-2" data-name="Gradient 28" x1="41.19" y1="153.49" x2="41.19" y2="169.69" xlink:href="#Gradient_28"/>
    <linearGradient id="Gradient_28-3" data-name="Gradient 28" x1="55.44" y1="153.49" x2="55.44" y2="169.69" xlink:href="#Gradient_28"/>
    <linearGradient id="Gradient_28-4" data-name="Gradient 28" x1="71.54" y1="153.49" x2="71.54" y2="169.69" xlink:href="#Gradient_28"/>
    <linearGradient id="Gradient_28-5" data-name="Gradient 28" x1="87.23" y1="153.49" x2="87.23" y2="169.69" xlink:href="#Gradient_28"/>
  </defs>
  <g>
    <g>
      <g transform="matrix(1, 0, 0, 1, 25.008738, 9.107124)">
        <path class="cls-1" d="M68.81,90.69c-19.27,27.83-47.73,27.34-57.31,7.77,3.03,14.56,13.39,27.22,28.44,32.51,28.15,9.89,46.16-10.94,56.72-15.52-1.75-1.17-3.78-1.52-6.25-.62,4.14-3.13,8.04-5.95,11.88-7.36-3.9-1.57-7.54-1.1-10.97,1.02,4.68-3.56,9.16-6.55,13.29-7.52-4.51-2.45-8.59-1.81-13.19,1.03,3.6-2.71,7.14-4.87,10.72-5.79-12.02-4.82-21.75,7.83-30.68,14.85-8.79,6.91-15.91,4.38-7.91-4.69,5.62-6.38,7.15-9.21,5.27-15.68h0Z" style="fill: url(#radial-gradient); fill-rule: evenodd;"/>
        <path class="cls-2" d="M68.81,90.69c-19.27,27.83-47.73,27.34-57.31,7.77,1.29,6.2,3.91,12.05,7.66,17.15,17.05,10.79,35.87-2.77,49.65-24.92h0Z" style="fill: url(#radial-gradient-2); fill-rule: evenodd;"/>
        <path class="cls-6" d="M96.66,115.45c-1.75-1.17-3.78-1.52-6.25-.62-4.29,3.23-8.84,6.8-13.84,9.45,7.19-2.23,13.84-9.45,20.09-8.83h0Zm7.95-14.48c-4.51-2.45-8.59-1.81-13.19,1.03-6.97,5.25-14.14,12.55-22.3,16.75,12.55-4.17,22.57-19.16,35.49-17.78h0Zm-2.32,6.5c-3.9-1.57-7.54-1.1-10.97,1.02-5.95,4.55-12.21,10.03-18.43,13.5,10.71-4.1,19.67-15.3,29.4-14.51h0Z" style="fill: url(#radial-gradient-3); fill-rule: evenodd;"/>
        <path class="cls-7" d="M71.46,111.06c-8.79,6.91-15.91,4.38-7.91-4.69-11.65,12.36-1.97,14.94,7.98,6.86,7.09-5.76,14.97-16.62,23.98-18.04-9.07,.81-16.82,10.17-24.04,15.87h0Z" style="fill: url(#radial-gradient-4); fill-rule: evenodd;"/>
      </g>
    </g>
    <g>
      <g class="cls-41" transform="matrix(1, 0, 0, 1, 25.008738, 9.107124)">
        <g>
          <path class="cls-8" d="M29.51,104.75c-6.02-2.79-11.84-6.96-15.43-12.62,.93-4.14,2.26-7.95,4-11.41,3.04,4.98,7.93,8.74,13.12,11.32-.89,4.19-1.43,8.44-1.68,12.71h0Zm65.83-10.57c-.27,.38-.57,.77-.86,1.14,.35-.05,.7-.1,1.04-.13-.05-.34-.11-.67-.18-1.01h0Zm1.17-1.78c.2,.9,.36,1.81,.51,2.73,.34,.01,.68,.03,1.03,.07,.27-2.2,.39-4.42,.34-6.63-.5,1.32-1.13,2.6-1.88,3.84h0Zm-21.67,15.81c-4.45,1.5-9.31,2.52-14.45,2.97-1.77,4.9,4.13,5.32,11.07-.13,1.11-.87,2.24-1.84,3.38-2.84h0Zm16.96-29.07c1.78,3.39,3.19,7.08,4.21,11.09,1.01-1.97,1.7-4.02,2.07-6.14-.61-4.95-2.05-9.64-4.17-13.93,.05,3.16-.68,6.17-2.1,8.98h0Zm-13.99,12.9c.84,3.98,1.37,8.01,1.64,12.05,3.93-3.44,8.09-6.71,12.55-8.16,1.08-1.19,2.07-2.45,2.92-3.8-.92-4.14-2.26-7.95-3.99-11.41-3.05,4.98-7.93,8.74-13.12,11.32h0Zm-8.23,3.16c.02,3.7-1.9,6.48-6.03,11.17-1.06,1.19-1.85,2.28-2.4,3.25,6.1-.61,11.79-2.07,16.8-4.17,.03-.03,.05-.05,.09-.08-.23-4.25-.74-8.49-1.61-12.66-2.14,.97-4.44,1.8-6.84,2.49h0Zm-14.33,.56c3.72-.07,7.3-.48,10.68-1.2,.98-1.22,1.95-2.51,2.89-3.87,.32,1.08,.54,2.07,.66,2.98,2.34-.68,4.56-1.5,6.62-2.46-1.05-4.6-2.5-9.02-4.38-13.23-4.68,2.21-10.35,3.54-16.46,3.64v14.14Zm0,1.5v7.64c3.15-2.28,6.23-5.12,9.16-8.51-2.93,.52-6,.82-9.16,.87h0Zm-24.28,8.14c4.85,2.05,10.35,3.5,16.25,4.15,2.19-.96,4.37-2.15,6.54-3.61v-8.69c-7.84-.13-15.1-1.79-21.17-4.55-.86,4.19-1.39,8.43-1.62,12.69h0Zm-.07,1.6c-.07,1.74-.09,3.5-.05,5.27,4.25,.5,8.83,0,13.48-1.58-4.81-.74-9.33-2-13.42-3.68h0Zm-1.48-.63c-6.05-2.71-11.87-6.74-15.76-12.18-.39,2.11-.69,4.31-.89,6.59,3.81,6.17,9.71,10.07,16.57,11.27-.03-1.91,0-3.81,.08-5.68h0Zm25.07-40.56c-3.95,0-7.51-1.06-10.07-2.78-2.48-1.66-4.01-3.92-4.01-6.39s1.53-4.74,4.01-6.4c2.56-1.72,6.12-2.78,10.07-2.78s7.51,1.06,10.08,2.78c2.48,1.66,4.01,3.92,4.01,6.4s-1.53,4.73-4.01,6.39c-2.57,1.72-6.12,2.78-10.08,2.78h0Zm29.48-8.78c.12,.38,.23,.77,.31,1.15,.74,.42,1.48,.85,2.21,1.31-.81-.85-1.64-1.67-2.51-2.46h0Zm-19.04-8.07c1.67,1.03,3.19,2.43,4.14,4.15,4.69,.56,9.18,1.99,13.39,4.1-.26-.79-.59-1.55-.99-2.31-3.87-3.02-8.26-5.39-13.01-6.98-1.16,.13-2.5,.48-3.53,1.04h0Zm-9.68-2.71c3.02,.1,5.83,.78,8.15,1.89,.68-.46,1.39-.82,2.15-1.08-3.3-.85-6.75-1.33-10.31-1.4v.59Zm15.84,30.36c-1.88-3.97-4.14-7.77-6.82-11.38-2.48,1.37-5.61,2.23-9.02,2.34v12.55c5.9-.1,11.34-1.39,15.84-3.51h0Zm10.13-8.61c-3.41-3.05-7.38-5.64-11.88-7.79-.77,1.62-2.08,3.07-3.79,4.24,2.7,3.65,4.98,7.49,6.89,11.5,3.49-1.86,6.78-4.5,8.79-7.95h0Zm.71-1.38c1.06-2.36,1.44-4.92,1.02-7.48-4.13-2.22-8.54-3.77-13.19-4.44,.4,1.33,.44,2.74,.1,4.09,4.56,2.15,8.59,4.77,12.08,7.83h0Zm1.16,1.06c3.06,2.9,5.69,6.21,7.81,9.85,1.52-3.45,1.91-7.21,1.05-10.89-2.2-3.58-3.79-4.46-7.39-6.58,.23,2.64-.31,5.24-1.48,7.62h0Zm7.01,11.48c-2.07-3.76-4.67-7.15-7.76-10.12-2.17,3.57-5.61,6.33-9.28,8.26,1.88,4.23,3.36,8.65,4.42,13.24,5.06-2.57,9.86-6.36,12.62-11.38h0ZM25.02,57.02c-.12,.38-.22,.77-.31,1.15-.74,.42-1.48,.85-2.2,1.31,.8-.85,1.64-1.67,2.5-2.46h0Zm19.05-8.07c-1.67,1.03-3.19,2.43-4.15,4.15-4.69,.56-9.17,1.99-13.38,4.1,.25-.79,.59-1.55,.99-2.31,3.87-3.02,8.25-5.39,13.01-6.98,1.15,.13,2.5,.48,3.53,1.04h0Zm9.68-2.71c-3.03,.1-5.83,.78-8.15,1.89-.68-.46-1.4-.82-2.15-1.08,3.3-.85,6.74-1.33,10.31-1.4v.59Zm-15.85,30.36c1.88-3.97,4.15-7.77,6.82-11.38,2.49,1.37,5.62,2.23,9.03,2.34v12.55c-5.9-.1-11.35-1.39-15.85-3.51h0Zm-10.12-8.61c3.41-3.05,7.38-5.64,11.88-7.79,.77,1.62,2.08,3.07,3.78,4.24-2.69,3.65-4.97,7.49-6.87,11.5-3.49-1.86-6.78-4.5-8.79-7.95h0Zm-.71-1.38c-1.07-2.36-1.44-4.92-1.02-7.48,4.12-2.22,8.54-3.77,13.18-4.44-.4,1.33-.43,2.74-.09,4.09-4.56,2.15-8.59,4.77-12.08,7.83h0Zm-1.16,1.06c-3.07,2.9-5.69,6.21-7.81,9.85-1.52-3.45-1.91-7.21-1.06-10.89,2.2-3.58,3.8-4.46,7.39-6.58-.22,2.64,.32,5.24,1.49,7.62h0Zm6.98,23.53c1.05-4.6,2.5-9.02,4.38-13.23,4.69,2.21,10.35,3.54,16.47,3.64v14.14c-7.75-.13-14.91-1.79-20.85-4.55h0Zm-14-12.05c2.08-3.76,4.67-7.15,7.76-10.12,2.19,3.57,5.62,6.33,9.29,8.26-1.89,4.23-3.36,8.65-4.43,13.24-5.05-2.57-9.85-6.36-12.62-11.38h0Zm-5.9,11.08c-1.02-1.97-1.72-4.02-2.07-6.14,.61-4.95,2.05-9.64,4.16-13.93-.05,3.16,.69,6.17,2.11,8.98-1.79,3.39-3.19,7.08-4.21,11.09h0Zm-.51,2.16c-.42,1.96-.74,3.99-.98,6.09-.67-3.26-.97-6.6-.9-9.92,.5,1.32,1.14,2.6,1.88,3.84h0Z" style="fill: url(#radial-gradient-5); fill-rule: evenodd;"/>
          <path class="cls-3" d="M55.25,45.67c3.41,.08,6.66,.66,9.64,1.65-.51,.22-1.02,.5-1.49,.82-2.33-1.11-5.14-1.79-8.15-1.89v-.58Zm11.87,2.49c3.75,1.58,6.98,3.86,9.44,6.61-2.43-.8-4.93-1.36-7.49-1.66-.95-1.73-2.47-3.13-4.14-4.15,.64-.35,1.41-.61,2.19-.8h0Zm11.18,8.82c1.9,2.81,3.07,5.98,3.29,9.36-3.41-2.94-7.32-5.45-11.74-7.54,.34-1.34,.31-2.75-.1-4.09,2.95,.43,5.8,1.2,8.55,2.27h0Zm3.06,13.5c-.74,4.32-3.06,8.22-6.47,11.34-.57-1.53-1.17-3.04-1.84-4.52,3.16-1.67,6.14-3.95,8.31-6.82h0Zm-7.68,12.38c-4.74,3.81-11.23,6.22-18.43,6.37v-7.62c6.11-.1,11.78-1.43,16.46-3.64,.72,1.6,1.37,3.23,1.97,4.89h0Zm-19.92,6.37c-7.19-.15-13.68-2.56-18.43-6.37,.59-1.65,1.25-3.29,1.96-4.89,4.69,2.21,10.35,3.54,16.47,3.64v7.62Zm-19.64-7.41c-3.41-3.13-5.73-7.03-6.47-11.34,2.15,2.87,5.14,5.15,8.31,6.82-.67,1.49-1.28,2.99-1.84,4.52h0Zm-6.7-15.49c.21-3.38,1.38-6.55,3.29-9.36,2.74-1.07,5.6-1.85,8.54-2.27-.4,1.33-.43,2.74-.09,4.09-4.42,2.09-8.34,4.6-11.74,7.54h0Zm5.03-11.56c2.46-2.75,5.69-5.03,9.44-6.61,.76,.19,1.54,.45,2.19,.8-1.67,1.03-3.19,2.43-4.15,4.15-2.56,.31-5.05,.86-7.48,1.66h0Zm11.67-7.45c2.97-.99,6.23-1.57,9.64-1.65v.58c-3.03,.1-5.83,.78-8.15,1.89-.48-.32-.97-.6-1.49-.82h0Zm10.38,18.48c-3.95,0-7.51-1.06-10.07-2.78-2.48-1.66-4.01-3.92-4.01-6.39s1.53-4.74,4.01-6.4c2.56-1.72,6.12-2.78,10.07-2.78s7.51,1.06,10.08,2.78c2.48,1.66,4.01,3.92,4.01,6.4s-1.53,4.73-4.01,6.39c-2.57,1.72-6.12,2.78-10.08,2.78h0Zm16.59,10.81c-1.88-3.97-4.14-7.77-6.82-11.38-2.48,1.37-5.61,2.23-9.02,2.34v12.55c5.9-.1,11.34-1.39,15.84-3.51h0Zm10.13-8.61c-3.41-3.05-7.38-5.64-11.88-7.79-.77,1.62-2.08,3.07-3.79,4.24,2.7,3.65,4.98,7.49,6.89,11.5,3.49-1.86,6.78-4.5,8.79-7.95h0Zm-43.31,8.61c1.88-3.97,4.15-7.77,6.82-11.38,2.49,1.37,5.62,2.23,9.03,2.34v12.55c-5.9-.1-11.35-1.39-15.85-3.51h0Zm-10.12-8.61c3.41-3.05,7.38-5.64,11.88-7.79,.77,1.62,2.08,3.07,3.78,4.24-2.69,3.65-4.97,7.49-6.87,11.5-3.49-1.86-6.78-4.5-8.79-7.95h0Z" style="fill: url(#radial-gradient-6); fill-rule: evenodd;"/>
          <path class="cls-5" d="M30.88,107.51c-.04,1.56-.07,3.16-.03,4.75,4.25,.5,8.83,0,13.48-1.58-4.34-.67-8.45-1.76-12.22-3.21-.4,.02-.82,.04-1.22,.04h0Zm24.37-11.75c2.1-.04,4.15-.19,6.16-.44,.61-2.61,.43-5.21-.89-7.55-1.6,2.75-3.37,5.22-5.28,7.41v.58Zm0,1.5v7.64c.57-.42,1.14-.85,1.71-1.3,1.77-2.08,3.17-4.38,4-6.71-1.87,.22-3.77,.34-5.7,.37h0Zm-19.77,9.81c3.66,1.17,7.6,2.02,11.74,2.48,2.19-.96,4.37-2.15,6.54-3.61v-8.69c-.14,0-.29-.01-.44-.01-5.36,5.37-11.6,8.69-17.84,9.83h0Zm-6.13,4.97c-.02-1.54-.01-3.06,.03-4.57-6.05-.31-11.84-2.78-16.52-7.54-.02,.27-.05,.56-.08,.84,3.81,6.17,9.71,10.07,16.57,11.27h0Z" style="fill: url(#radial-gradient-7); fill-rule: evenodd;"/>
          <path class="cls-4" d="M63.55,106.37c-1.06,1.19-1.85,2.28-2.4,3.25,6.1-.61,11.79-2.07,16.8-4.17,.03-.03,.05-.05,.09-.08-.11-2.03-.28-4.05-.54-6.07-1.46,1.56-2.86,3.17-4.23,4.71-2.4,2.72-9.84,7.76-9.72,2.36h0Zm28.45-10.44c1.08-1.19,2.07-2.45,2.92-3.8-.31-1.39-.66-2.73-1.06-4.03-5.92,1.51-10.77,5.43-15.03,9.8,.28,2.07,.48,4.13,.62,6.2,3.93-3.44,8.09-6.71,12.55-8.16h0Zm3.52-.74c-.05-.34-.11-.67-.18-1.01-.27,.38-.57,.77-.86,1.14,.35-.05,.7-.1,1.04-.13h0Zm.49-4.95c.46-.89,.85-1.79,1.17-2.72-.62,.07-1.25,.14-1.86,.25,.25,.81,.48,1.63,.69,2.47h0Zm.5,2.16c.2,.9,.36,1.81,.51,2.73,.34,.01,.68,.03,1.03,.07,.27-2.2,.39-4.42,.34-6.63-.5,1.32-1.13,2.6-1.88,3.84h0Zm-21.67,15.81c-4.45,1.5-9.31,2.52-14.45,2.97-1.77,4.9,4.13,5.32,11.07-.13,1.11-.87,2.24-1.84,3.38-2.84h0Z" style="fill: url(#radial-gradient-8); fill-rule: evenodd;"/>
        </g>
      </g>
    </g>
  </g>
  <g transform="matrix(1.185416, 0, 0, 1.311783, 132.420778, -103.422891)" style="">
    <g>
      <path class="cls-9" d="M15.1,139.31c.31,0,.47,.16,.47,.47v2.03c0,.31-.16,.47-.47,.47H4.4c-.41,0-.7,.11-.88,.32-.17,.21-.26,.51-.26,.88v.73c0,.8,.37,1.2,1.11,1.2H12.38c1.24,0,2.17,.32,2.8,.95,.63,.63,.94,1.54,.94,2.72v1.71c0,1.04-.31,1.88-.92,2.52-.61,.64-1.57,.96-2.86,.96H.51c-.33,0-.49-.16-.49-.47v-2.03c0-.31,.16-.47,.49-.47H11.72c.41,0,.7-.11,.88-.32,.17-.21,.26-.51,.26-.88v-.88c0-.8-.37-1.2-1.11-1.2H3.74c-1.24,0-2.17-.32-2.8-.95-.63-.63-.94-1.54-.94-2.72v-1.56c0-1.04,.31-1.88,.92-2.52,.61-.64,1.57-.96,2.86-.96H15.1Z" style="fill: url(#linear-gradient-2);"/>
      <path class="cls-43" d="M33.95,139.31c.33,0,.49,.16,.49,.47v2.09c0,.33-.16,.49-.49,.49h-6.7v11.42c0,.31-.16,.47-.47,.47h-2.33c-.31,0-.47-.16-.47-.47v-11.42h-6.7c-.33,0-.49-.16-.49-.49v-2.09c0-.31,.16-.47,.49-.47h16.68Z" style="fill: url(#linear-gradient-3);"/>
      <path class="cls-47" d="M47.47,139.31c1.08,0,2,.1,2.77,.31,.76,.21,1.38,.53,1.86,.98,.48,.45,.82,1.03,1.04,1.74,.21,.71,.32,1.58,.32,2.61v3.67c0,1.02-.11,1.9-.32,2.62-.21,.72-.56,1.3-1.04,1.75-.48,.45-1.1,.77-1.86,.97-.76,.2-1.68,.3-2.77,.3h-6.6c-1.08,0-2-.1-2.75-.3-.75-.2-1.37-.52-1.85-.97-.48-.45-.83-1.03-1.05-1.75-.22-.72-.33-1.59-.33-2.62v-3.67c0-1.03,.11-1.89,.33-2.61,.22-.71,.57-1.29,1.05-1.74,.48-.45,1.09-.78,1.85-.98,.75-.21,1.67-.31,2.75-.31h6.6Zm-9.31,9.08c0,.56,.05,1.02,.14,1.4,.09,.38,.25,.68,.46,.9,.21,.22,.5,.38,.86,.47,.36,.09,.82,.14,1.38,.14h6.34c.56,0,1.01-.05,1.38-.14,.36-.09,.65-.25,.86-.47,.21-.22,.37-.52,.46-.9,.09-.38,.14-.84,.14-1.4v-3.2c0-.56-.05-1.02-.14-1.4-.09-.38-.25-.68-.46-.9-.21-.22-.5-.38-.86-.47-.36-.09-.82-.14-1.38-.14h-6.34c-.56,0-1.01,.05-1.38,.14-.36,.09-.65,.25-.86,.47-.21,.22-.37,.52-.46,.9-.09,.38-.14,.84-.14,1.4v3.2Z" style="fill: url(#linear-gradient-4);"/>
      <path class="cls-28" d="M67.35,139.31c1.64,0,2.81,.37,3.52,1.11,.71,.74,1.07,1.84,1.07,3.29v1.22c0,1.22-.25,2.19-.75,2.9-.5,.71-1.31,1.17-2.43,1.37l3.65,4.53c.07,.07,.09,.18,.06,.32-.03,.14-.14,.21-.34,.21h-2.75c-.19,0-.31-.02-.38-.06-.07-.04-.14-.11-.21-.21l-3.37-4.44h-6.9v4.25c0,.31-.16,.47-.47,.47h-2.31c-.33,0-.49-.16-.49-.47v-13.84c0-.43,.21-.64,.64-.64h11.47Zm-8.84,7.62h8.18c.73,0,1.24-.16,1.54-.47s.45-.79,.45-1.43v-.9c0-.64-.15-1.12-.45-1.43-.3-.31-.81-.47-1.54-.47h-7.9c-.19,0-.28,.09-.28,.26v4.44Z" style="fill: url(#linear-gradient-5);"/>
      <path class="cls-15" d="M77.94,139.31c.31,0,.58,.02,.81,.06s.43,.12,.6,.25c.17,.12,.32,.28,.46,.49,.14,.21,.27,.48,.42,.82l4.44,10.25c.06,.13,.16,.19,.3,.19h.26c.14,0,.24-.06,.3-.19l4.44-10.25c.14-.34,.28-.62,.42-.82,.14-.21,.29-.37,.46-.49,.17-.12,.37-.2,.59-.25,.22-.04,.49-.06,.8-.06h2.28c.74,0,1.24,.17,1.49,.5,.26,.33,.38,.91,.38,1.72v12.26c0,.31-.16,.47-.49,.47h-2.18c-.31,0-.47-.16-.47-.47v-11.15c0-.14-.06-.21-.17-.21h-.19c-.14,0-.23,.06-.28,.17l-4.31,9.57c-.17,.38-.35,.71-.52,.97-.18,.26-.37,.48-.58,.65-.21,.17-.44,.29-.7,.36-.26,.07-.57,.11-.93,.11h-1.03c-.36,0-.67-.04-.93-.11-.26-.07-.5-.19-.7-.36-.21-.17-.4-.39-.58-.65-.18-.26-.35-.59-.52-.97l-4.31-9.57c-.04-.11-.14-.17-.28-.17h-.19c-.11,0-.17,.07-.17,.21v11.15c0,.31-.16,.47-.47,.47h-2.18c-.33,0-.49-.16-.49-.47v-12.26c0-.81,.13-1.38,.38-1.72,.26-.33,.76-.5,1.52-.5h2.33Z" style="fill: url(#linear-gradient-6);"/>
      <path class="cls-35" d="M99.67,139.31c.23,0,.4,.09,.51,.26l5.7,7.71,5.74-7.71c.11-.17,.28-.26,.51-.26h2.8c.11,0,.19,.05,.23,.14s.03,.19-.04,.29l-7.67,9.95v4.1c0,.31-.16,.47-.47,.47h-2.31c-.33,0-.49-.16-.49-.47v-4.1l-7.58-9.95c-.07-.1-.09-.2-.05-.29s.12-.14,.25-.14h2.86Z" style="fill: url(#linear-gradient-7);"/>
    </g>
    <g>
      <path class="cls-20" d="M33.6,157.53c.25,0,.38,.13,.38,.38v1.68c0,.26-.13,.39-.38,.39h-7.62c-.44,0-.81,.04-1.1,.11-.29,.07-.52,.2-.69,.38-.17,.18-.29,.41-.37,.71-.07,.3-.11,.67-.11,1.13v2.43c0,.46,.04,.84,.11,1.14,.07,.3,.2,.54,.37,.72,.17,.18,.4,.3,.69,.38,.29,.07,.66,.11,1.1,.11h7.62c.25,0,.38,.13,.38,.38v1.68c0,.25-.13,.38-.38,.38h-7.72c-.87,0-1.6-.08-2.21-.24-.6-.16-1.1-.42-1.48-.78-.38-.36-.66-.83-.84-1.4-.18-.58-.27-1.27-.27-2.1v-2.94c0-.82,.09-1.52,.27-2.09,.18-.57,.46-1.04,.84-1.39,.38-.36,.88-.62,1.48-.79,.6-.17,1.34-.25,2.21-.25h7.72Z" style="fill: url(#Gradient_28);"/>
      <path class="cls-45" d="M37.33,157.53c.25,0,.38,.13,.38,.38v6.83c0,.46,.04,.84,.11,1.14,.07,.3,.2,.54,.37,.72,.17,.18,.4,.3,.69,.38,.29,.07,.66,.11,1.1,.11h6.93c.25,0,.38,.13,.38,.38v1.68c0,.25-.13,.38-.38,.38h-7.03c-.87,0-1.6-.08-2.21-.24-.6-.16-1.1-.42-1.48-.78-.38-.36-.66-.83-.84-1.4-.18-.58-.27-1.27-.27-2.1v-7.08c0-.25,.13-.38,.39-.38h1.85Z" style="fill: url(#Gradient_28-2);"/>
      <path class="cls-34" d="M58.09,157.53c.87,0,1.61,.08,2.22,.25,.61,.17,1.11,.43,1.49,.79s.66,.82,.83,1.39c.17,.57,.26,1.27,.26,2.09v2.94c0,.82-.09,1.52-.26,2.1-.17,.58-.45,1.04-.83,1.4s-.88,.62-1.49,.78c-.61,.16-1.35,.24-2.22,.24h-5.29c-.87,0-1.6-.08-2.21-.24-.6-.16-1.1-.42-1.48-.78s-.66-.83-.84-1.4c-.18-.58-.27-1.27-.27-2.1v-2.94c0-.82,.09-1.52,.27-2.09,.18-.57,.46-1.04,.84-1.39s.88-.62,1.48-.79c.6-.17,1.34-.25,2.21-.25h5.29Zm-7.46,7.27c0,.44,.04,.82,.11,1.12,.07,.3,.2,.54,.37,.72,.17,.18,.4,.3,.69,.38,.29,.07,.66,.11,1.1,.11h5.08c.45,0,.81-.04,1.1-.11,.29-.07,.52-.2,.69-.38,.17-.18,.29-.42,.37-.72,.07-.3,.11-.68,.11-1.12v-2.57c0-.44-.04-.82-.11-1.12-.07-.3-.2-.54-.37-.72-.17-.18-.4-.3-.69-.38-.29-.07-.66-.11-1.1-.11h-5.08c-.44,0-.81,.04-1.1,.11-.29,.07-.52,.2-.69,.38-.17,.18-.29,.42-.37,.72-.07,.3-.11,.68-.11,1.12v2.57Z" style="fill: url(#Gradient_28-3);"/>
      <path class="cls-14" d="M66.52,157.53c.25,0,.38,.13,.38,.38v6.83c0,.46,.04,.84,.11,1.14,.07,.3,.2,.54,.37,.72,.17,.18,.4,.3,.69,.38,.29,.07,.66,.11,1.1,.11h4.74c.44,0,.81-.04,1.1-.11,.29-.07,.52-.2,.69-.38,.17-.18,.29-.42,.36-.72,.07-.3,.1-.68,.1-1.14v-6.83c0-.25,.13-.38,.38-.38h1.87c.25,0,.38,.13,.38,.38v7.08c0,.82-.09,1.52-.26,2.1-.17,.58-.45,1.04-.83,1.4s-.88,.62-1.49,.78c-.61,.16-1.35,.24-2.22,.24h-4.93c-.87,0-1.6-.08-2.21-.24-.6-.16-1.1-.42-1.48-.78-.38-.36-.66-.83-.84-1.4-.18-.58-.27-1.27-.27-2.1v-7.08c0-.25,.13-.38,.39-.38h1.85Z" style="fill: url(#Gradient_28-4);"/>
      <path class="cls-24" d="M88.87,157.53c.92,0,1.72,.09,2.38,.28,.66,.19,1.2,.48,1.63,.87,.42,.39,.73,.9,.93,1.51,.2,.61,.3,1.33,.3,2.16v2.33c0,.83-.1,1.55-.3,2.16s-.51,1.11-.93,1.51c-.42,.39-.96,.68-1.63,.87-.66,.19-1.45,.28-2.38,.28h-8.01c-.34,0-.51-.17-.51-.51v-10.95c0-.34,.17-.51,.51-.51h8.01Zm-5.9,9.38c0,.15,.07,.22,.22,.22h5.61c.5,0,.92-.05,1.27-.14,.34-.09,.62-.24,.83-.45,.21-.21,.36-.48,.45-.82s.14-.76,.14-1.27v-1.88c0-.5-.05-.92-.14-1.27s-.24-.62-.45-.82c-.21-.21-.49-.35-.83-.44-.34-.09-.76-.14-1.27-.14h-5.61c-.15,0-.22,.08-.22,.24v6.76Z" style="fill: url(#Gradient_28-5);"/>
    </g>
  </g>
</svg>